<svg width="116" height="53" viewBox="0 0 116 53" fill="none" xmlns="http://www.w3.org/2000/svg">
<path d="M50.133 42.233C48.6983 42.2671 47.3087 41.7302 46.2695 40.7404C45.2304 39.7505 44.6266 38.3887 44.591 36.954V5.27903C44.6266 3.84433 45.2304 2.48243 46.2695 1.49259C47.3087 0.502747 48.6983 -0.0341272 50.133 -2.57069e-05C51.5676 -0.0338581 52.9569 0.503142 53.9958 1.49296C55.0348 2.48277 55.6384 3.84451 55.674 5.27903V36.953C55.6389 38.3878 55.0355 39.7499 53.9965 40.74C52.9574 41.7301 51.5678 42.2671 50.133 42.233V42.233Z" fill="#3BB884"/>
<path d="M64.996 42.233C63.5613 42.2671 62.1717 41.7302 61.1325 40.7404C60.0934 39.7506 59.4896 38.3887 59.454 36.954V15.837C59.4899 14.4024 60.0937 13.0407 61.1328 12.0509C62.1719 11.0611 63.5613 10.5242 64.996 10.558V10.558C66.4307 10.5239 67.8203 11.0607 68.8595 12.0506C69.8987 13.0404 70.5024 14.4023 70.538 15.837V36.954C70.5024 38.3887 69.8987 39.7506 68.8595 40.7404C67.8203 41.7302 66.4307 42.2671 64.996 42.233Z" fill="#3BB884"/>
<path d="M35.269 42.233C33.8343 42.2671 32.4447 41.7302 31.4055 40.7404C30.3664 39.7506 29.7626 38.3887 29.727 36.954V15.837C29.7626 14.4023 30.3664 13.0404 31.4055 12.0506C32.4447 11.0607 33.8343 10.5239 35.269 10.558V10.558C36.7037 10.5242 38.0931 11.0611 39.1322 12.0509C40.1713 13.0407 40.7751 14.4024 40.811 15.837V36.954C40.7754 38.3887 40.1716 39.7506 39.1325 40.7404C38.0933 41.7302 36.7037 42.2671 35.269 42.233V42.233Z" fill="#D4D6D6"/>
<path d="M20.408 41.436C18.9733 41.4701 17.5837 40.9332 16.5445 39.9434C15.5054 38.9535 14.9016 37.5917 14.866 36.157V22.63C14.9019 21.1954 15.5057 19.8337 16.5448 18.8439C17.5839 17.8541 18.9733 17.3171 20.408 17.351V17.351C21.8427 17.3169 23.2323 17.8537 24.2715 18.8436C25.3106 19.8334 25.9144 21.1953 25.95 22.63V36.156C25.9146 37.5908 25.311 38.953 24.2718 39.9431C23.2327 40.9331 21.8429 41.4701 20.408 41.436V41.436Z" fill="#D4D6D6"/>
<path d="M5.541 42.233C4.10636 42.2671 2.71687 41.7302 1.67787 40.7403C0.638875 39.7505 0.0353782 38.3886 0 36.954V15.837C0.0356408 14.4025 0.639216 13.0408 1.67815 12.0509C2.71709 11.0611 4.10643 10.5242 5.541 10.558C6.97574 10.5239 8.36532 11.0607 9.40448 12.0506C10.4436 13.0404 11.0474 14.4023 11.083 15.837V36.954C11.0474 38.3887 10.4436 39.7506 9.40448 40.7404C8.36532 41.7302 6.97574 42.2671 5.541 42.233Z" fill="#D4D6D6"/>
<path d="M94.724 42.233C93.2893 42.2671 91.8997 41.7302 90.8605 40.7404C89.8214 39.7505 89.2176 38.3887 89.182 36.954V15.837C89.2179 14.4024 89.8217 13.0406 90.8608 12.0509C91.8999 11.0611 93.2894 10.5242 94.724 10.558V10.558C96.1587 10.5242 97.5481 11.0611 98.5872 12.0509C99.6263 13.0406 100.23 14.4024 100.266 15.837V36.954C100.23 38.3887 99.6266 39.7505 98.5875 40.7404C97.5483 41.7302 96.1588 42.2671 94.724 42.233V42.233Z" fill="#213245"/>
<path d="M110.185 21.117C108.75 21.1511 107.361 20.6143 106.322 19.6244C105.282 18.6346 104.679 17.2727 104.643 15.838V15.838C104.679 14.4033 105.282 13.0415 106.322 12.0516C107.361 11.0618 108.75 10.5249 110.185 10.559C111.62 10.5252 113.009 11.0621 114.048 12.0519C115.087 13.0417 115.691 14.4034 115.727 15.838V15.838C115.691 17.2727 115.088 18.6346 114.048 19.6244C113.009 20.6143 111.62 21.1511 110.185 21.117V21.117Z" fill="#9FA2A3"/>
<path d="M110.185 42.234C108.75 42.2681 107.361 41.7314 106.322 40.7418C105.283 39.7522 104.679 38.3905 104.643 36.956V36.956C104.679 35.5215 105.283 34.1599 106.322 33.1702C107.361 32.1806 108.75 31.6439 110.185 31.678V31.678C111.62 31.6439 113.009 32.1806 114.048 33.1702C115.087 34.1599 115.691 35.5215 115.727 36.956V36.956C115.691 38.3905 115.087 39.7522 114.048 40.7418C113.009 41.7314 111.62 42.2681 110.185 42.234V42.234Z" fill="#9FA2A3"/>
<path d="M80.417 10.558H79.302C76.5494 10.558 74.318 12.7894 74.318 15.542V47.808C74.318 50.5606 76.5494 52.792 79.302 52.792H80.417C83.1696 52.792 85.401 50.5606 85.401 47.808V15.542C85.401 12.7894 83.1696 10.558 80.417 10.558Z" fill="#213245"/>
</svg>
