<?xml version="1.0" encoding="utf-8"?>
<!-- Generator: Adobe Illustrator 27.3.1, SVG Export Plug-In . SVG Version: 6.00 Build 0)  -->
<svg version="1.1" id="Livello_1" xmlns="http://www.w3.org/2000/svg" xmlns:xlink="http://www.w3.org/1999/xlink" x="0px" y="0px"
	 viewBox="0 0 334.9 254.8" style="enable-background:new 0 0 334.9 254.8;" xml:space="preserve">
<style type="text/css">
	.st0{fill:#FFFFFF;}
	.st1{fill:#DCDE42;}
	.st2{fill:#EEB339;}
	.st3{fill:#816AAD;}
</style>
<g>
	<g>
		<path class="st0" d="M202.9,238.1c37.4-11.5,66.7-41.4,77.3-79.2h-60.1L202.9,238.1z"/>
		<path class="st0" d="M117.8,158.9c-17.5,0-31.7-14.1-32-31.5H52.9c0,53.1,35.7,97.8,84.3,111.5l17.4-80H117.8z"/>
		<path class="st1" d="M46.3,63.4c-17.7,0-32,14.3-32,32s14.3,32,32,32h6.6c0-23.7,7.1-45.7,19.3-64H46.3z"/>
		<path class="st2" d="M85.7,126.9c0-17.7,14.3-32,32-32h50.7l1.4-6.3c3.3-15.1,16.6-25.3,31.5-25.2c-0.1,0-0.1,0-0.2,0h-129
			c-12.2,18.3-19.3,40.3-19.3,64h32.9C85.7,127.3,85.7,127.1,85.7,126.9z"/>
		<path class="st3" d="M288.5,94.9H280c3,10.3,4.6,21.2,4.6,32.5c0,10.9-1.5,21.5-4.3,31.5h8.3c17.7,0,32-14.3,32-32
			S306.2,94.9,288.5,94.9z"/>
		<path class="st1" d="M279.9,94.9h-46.8c0,0.2,0,0.3,0,0.5c0,2.8-0.4,5.5-1,8c-3.6,13.8-16.1,24-31,24h-39.7H85.7
			c0.3,17.4,14.5,31.5,32,31.5h36.9h65.5h60.1c2.8-10,4.3-20.6,4.3-31.5C284.5,116.2,282.9,105.3,279.9,94.9z"/>
	</g>
</g>
<g>
	<path class="st0" d="M168.7,11.6c-40.3,0-75.8,20.6-96.5,51.8h129.1c0,0,0,0,0,0c0,0,0,0,0,0h0c-14.8-0.1-28.2,10.2-31.5,25.2
		l-1.4,6.3h111.5C265.8,46.8,221.4,11.6,168.7,11.6z"/>
	<polygon class="st0" points="201.3,63.4 201.3,63.4 201.3,63.4 	"/>
</g>
<g id="Livello_3">
	<path class="st3" d="M233.1,94.4c-0.4-13-9.4-25-21.6-29.3c-3.3-1.1-6.7-1.7-10.2-1.7c-14.8-0.1-28.2,10.2-31.5,25.2l-1.4,6.3
		l64.7,0C233.1,94.6,233.1,94.6,233.1,94.4z"/>
</g>
</svg>
